<svg width="1024" height="1024" viewBox="0 0 1024 1024" xmlns="http://www.w3.org/2000/svg">
  <defs>
    <linearGradient id="bg" x1="0" y1="0" x2="0" y2="1">
      <stop offset="0" stop-color="#202024"/>
      <stop offset="1" stop-color="#0b0b0d"/>
    </linearGradient>
  </defs>
  <rect x="64" y="64" width="896" height="896" rx="200" fill="url(#bg)" stroke="#3a3a40" stroke-width="2"/>
  <g transform="translate(232,256) scale(16)" fill="#ffffff">
    <path d="M29.426 15.535c0 0 0.648-8.743-7.361-9.74-6.866-0.701-8.955 5.679-8.955 5.679s-2.067-1.988-4.873-0.364c-2.51 1.55-2.067 4.388-2.067 4.388s-5.576 1.083-5.576 6.768c0.125 5.677 6.055 5.734 6.055 5.734h11.351l-5-5h3v-6h4v6h3l-5 5h10.467c0 0 5.52 0.006 6.295-5.395 0.369-5.906-5.336-7.070-5.336-7.070z"/>
  </g>
</svg>
